Coordinates
version=1
nRows=30
nColumns=38
inDegrees=no

Units are S.I. units (second, meters, Newtons, ...)
If the header above contains a line with 'inDegrees', this indicates whether rotational values are in degrees (yes) or radians (no).

endheader
time	pelvis_tilt	pelvis_list	pelvis_rotation	pelvis_tx	pelvis_ty	pelvis_tz	hip_flexion_r	hip_adduction_r	hip_rotation_r	knee_angle_r	ankle_angle_r	subtalar_angle_r	mtp_angle_r	hip_flexion_l	hip_adduction_l	hip_rotation_l	knee_angle_l	ankle_angle_l	subtalar_angle_l	mtp_angle_l	lumbar_extension	lumbar_bending	lumbar_rotation	arm_flex_r	arm_add_r	arm_rot_r	elbow_flex_r	pro_sup_r	wrist_flex_r	wrist_dev_r	arm_flex_l	arm_add_l	arm_rot_l	elbow_flex_l	pro_sup_l	wrist_flex_l	wrist_dev_l
1.2	-2.86114	1.44678	-1.67002	0.482016	0.789267	0.94357	0.409988	-0.224687	-0.329474	0.603654	0.136669	0	0	-0.307248	0.0716588	-0.0288504	0.0237886	0.189788	0	0	-0.263445	-0.0296428	-0.251482	-0.168234	-0.195555	0.10141	0.583118	0.400692	0	0	0.0864157	-0.415074	0.433066	0.819178	1.3612	0	0
1.21	-2.83478	1.4502	-1.69967	0.482409	0.799362	0.941419	0.413635	-0.221302	-0.342278	0.548542	0.143433	0	0	-0.320012	0.0736593	-0.0278331	0.0147446	0.193691	0	0	-0.26194	-0.0329483	-0.247058	-0.163931	-0.195963	0.102715	0.587538	0.400379	0	0	0.0961687	-0.41738	0.437514	0.821553	1.36307	0	0
1.22	-2.80413	1.45443	-1.73397	0.482959	0.809452	0.939025	0.417456	-0.216501	-0.352231	0.493917	0.151065	0	0	-0.330651	0.0758788	-0.0282016	0.007889	0.198519	0	0	-0.259469	-0.0367523	-0.242139	-0.159234	-0.19622	0.103833	0.590981	0.399978	0	0	0.105794	-0.419554	0.442143	0.823275	1.3639	0	0
1.23	-2.77596	1.45904	-1.76652	0.483738	0.819592	0.936487	0.420387	-0.209001	-0.358748	0.439132	0.158682	0	0	-0.340406	0.077498	-0.0291844	0.00199581	0.203428	0	0	-0.256604	-0.0402802	-0.236142	-0.154547	-0.196222	0.103791	0.593898	0.400667	0	0	0.115439	-0.421519	0.4474	0.824139	1.36331	0	0
1.24	-2.7475	1.46425	-1.79953	0.484656	0.829779	0.933805	0.422459	-0.199527	-0.36094	0.384443	0.165225	0	0	-0.348255	0.0786836	-0.0317337	2.15277e-08	0.208754	0	0	-0.253014	-0.0436217	-0.230022	-0.149908	-0.196488	0.104836	0.596923	0.397081	0	0	0.124245	-0.422882	0.450673	0.824063	1.36769	0	0
1.25	-2.7229	1.46947	-1.82858	0.485632	0.840054	0.931088	0.421997	-0.187851	-0.357854	0.328644	0.168197	0	0	-0.354972	0.0790263	-0.0356075	0	0.215196	0	0	-0.249469	-0.0462211	-0.223853	-0.145635	-0.196769	0.104757	0.600203	0.393917	0	0	0.132524	-0.423682	0.453406	0.822913	1.37251	0	0
1.26	-2.71129	1.47385	-1.84428	0.486679	0.850495	0.928506	0.416	-0.172868	-0.346362	0.268686	0.163891	0	0	-0.362334	0.0776767	-0.040495	1.11053e-08	0.223365	0	0	-0.247171	-0.0473817	-0.217913	-0.141723	-0.1972	0.104015	0.603867	0.389873	0	0	0.13994	-0.423387	0.452893	0.820277	1.38799	0	0
1.27	-2.68861	1.47835	-1.86967	0.487654	0.861244	0.925832	0.410449	-0.160525	-0.337802	0.216939	0.158554	0	0	-0.369486	0.0765742	-0.0433447	8.70094e-08	0.231933	0	0	-0.243824	-0.0493535	-0.213771	-0.138515	-0.197287	0.102927	0.606361	0.389608	0	0	0.145607	-0.42382	0.454184	0.8182	1.39017	0	0
1.28	-2.6705	1.48177	-1.8892	0.488583	0.87228	0.923288	0.402631	-0.149125	-0.329389	0.171636	0.149633	0	0	-0.376944	0.0743264	-0.0484636	0.00400265	0.242471	0	0	-0.241389	-0.0508775	-0.210995	-0.136118	-0.196984	0.10057	0.608647	0.389072	0	0	0.15001	-0.424276	0.455022	0.815899	1.39003	0	0
1.29	-2.64385	1.48448	-1.91558	0.48933	0.883534	0.920794	0.397687	-0.142116	-0.329629	0.143724	0.144193	0	0	-0.3845	0.0721762	-0.0523267	0.00939188	0.252194	0	0	-0.239177	-0.0528293	-0.210211	-0.134475	-0.196704	0.0984453	0.610681	0.388943	0	0	0.152926	-0.424592	0.454295	0.813529	1.39162	0	0
1.3	-2.62811	1.48609	-1.92967	0.490008	0.895046	0.918523	0.391911	-0.135743	-0.331054	0.127349	0.138744	0	0	-0.392441	0.0684098	-0.0575161	0.0175173	0.262695	0	0	-0.238323	-0.0537276	-0.210601	-0.133756	-0.196416	0.0953731	0.61299	0.389259	0	0	0.154773	-0.42452	0.452557	0.81072	1.39328	0	0
1.31	-2.6201	1.48673	-1.93443	0.490494	0.906815	0.916465	0.387676	-0.131809	-0.337401	0.12749	0.135649	0	0	-0.399997	0.0634316	-0.0641335	0.0292626	0.27404	0	0	-0.238481	-0.0536684	-0.212705	-0.133826	-0.196137	0.091124	0.615374	0.390317	0	0	0.155112	-0.42394	0.449441	0.807584	1.39474	0	0
1.32	-2.61283	1.48768	-1.9357	0.490712	0.91895	0.914503	0.388136	-0.132267	-0.354877	0.148486	0.137331	0	0	-0.400638	0.0560928	-0.0817134	0.0563275	0.294691	0	0	-0.237783	-0.0527137	-0.21756	-0.134907	-0.194528	0.0811798	0.616243	0.404054	0	0	0.153137	-0.422778	0.444165	0.804253	1.39504	0	0
1.33	-2.61953	1.48727	-1.9228	0.490828	0.931507	0.912882	0.384552	-0.131837	-0.364699	0.171106	0.13406	0	0	-0.409968	0.0488101	-0.0835976	0.0683111	0.301689	0	0	-0.238255	-0.0506766	-0.222927	-0.136842	-0.194996	0.0787684	0.618182	0.40289	0	0	0.149046	-0.421244	0.438002	0.801179	1.39612	0	0
1.34	-2.63603	1.48689	-1.89973	0.49094	0.944248	0.911436	0.381094	-0.130983	-0.373992	0.196503	0.131683	0	0	-0.417009	0.0398939	-0.0891336	0.0860357	0.31059	0	0	-0.238844	-0.0474212	-0.229033	-0.139156	-0.195436	0.0758697	0.620171	0.402268	0	0	0.142897	-0.419016	0.4287	0.798053	1.39687	0	0
1.35	-2.66628	1.48708	-1.86296	0.491195	0.957134	0.910215	0.377049	-0.127424	-0.379002	0.216682	0.125673	0	0	-0.421301	0.0288088	-0.09826	0.108893	0.31976	0	0	-0.239152	-0.0426887	-0.235154	-0.141496	-0.19601	0.0734437	0.62162	0.402031	0	0	0.135137	-0.416221	0.417165	0.794618	1.39757	0	0
1.36	-2.7165	1.48794	-1.80707	0.491742	0.970064	0.909304	0.372735	-0.12023	-0.378476	0.228897	0.108973	0	0	-0.422707	0.0152144	-0.111052	0.136523	0.327981	0	0	-0.239449	-0.0361974	-0.240386	-0.143163	-0.196683	0.0722814	0.621801	0.401783	0	0	0.126686	-0.413271	0.405244	0.790498	1.39795	0	0
1.37	-2.78312	1.4894	-1.73629	0.492616	0.982979	0.908693	0.368955	-0.110645	-0.374794	0.236623	0.0807081	0	0	-0.420979	-0.000295697	-0.126944	0.168668	0.334585	0	0	-0.239459	-0.0284197	-0.244165	-0.144002	-0.197182	0.0716488	0.620599	0.401517	0	0	0.117671	-0.409639	0.392164	0.785302	1.39755	0	0
1.38	-2.85851	1.49129	-1.65778	0.493731	0.995934	0.908313	0.365846	-0.100683	-0.372286	0.246023	0.0500098	0	0	-0.415691	-0.0171737	-0.1444	0.206115	0.339509	0	0	-0.238748	-0.0201832	-0.246833	-0.144372	-0.197519	0.0712014	0.618168	0.401213	0	0	0.107945	-0.405436	0.37832	0.778955	1.39682	0	0
1.39	-2.93754	1.49305	-1.57595	0.494935	1.00913	0.908147	0.364812	-0.0931701	-0.375777	0.264209	0.0263972	0	0	-0.407573	-0.0351814	-0.161049	0.248941	0.341098	0	0	-0.237089	-0.0120129	-0.248966	-0.145081	-0.198119	0.0721659	0.614895	0.400601	0	0	0.0973113	-0.400693	0.364334	0.771383	1.39567	0	0
1.4	-3.01612	1.49371	-1.49433	0.496071	1.02253	0.908301	0.365207	-0.0885306	-0.383181	0.291108	0.0130558	0	0	-0.397456	-0.0538539	-0.174584	0.296347	0.337553	0	0	-0.235546	-0.00396602	-0.251301	-0.146177	-0.198774	0.0728401	0.611602	0.399935	0	0	0.0860556	-0.39557	0.351142	0.763147	1.39401	0	0
1.41	-3.11293	1.49638	-1.39345	0.497124	1.03589	0.908421	0.370475	-0.0848293	-0.391308	0.325263	0.0117089	0	0	-0.375756	-0.0768048	-0.192588	0.360317	0.333467	0	0	-0.230622	0.0051932	-0.254661	-0.1469	-0.199136	0.072314	0.606381	0.405513	0	0	0.0742579	-0.390664	0.34203	0.754628	1.3755	0	0
1.42	3.09582	1.49422	-1.31771	0.498261	1.04927	0.909448	0.368126	-0.0790913	-0.388127	0.35375	0.0162481	0	0	-0.362794	-0.0943071	-0.194653	0.410042	0.311039	0	0	-0.230976	0.0131085	-0.255198	-0.147038	-0.200352	0.0747817	0.602499	0.401781	0	0	0.0635826	-0.385484	0.333848	0.74558	1.37626	0	0
1.43	2.98759	1.4948	-1.20963	0.499781	1.06236	0.910329	0.369103	-0.0699336	-0.385278	0.380075	0.0252641	0	0	-0.33743	-0.115828	-0.199638	0.473845	0.283816	0	0	-0.227509	0.02241	-0.253896	-0.146807	-0.201991	0.0794205	0.598494	0.397079	0	0	0.0529213	-0.380002	0.326161	0.735963	1.37451	0	0
1.44	2.84576	1.49718	-1.06955	0.501619	1.07521	0.91104	0.371177	-0.0577321	-0.384211	0.39954	0.0329861	0	0	-0.303053	-0.138902	-0.20171	0.544204	0.247444	0	0	-0.220406	0.0322206	-0.250665	-0.146785	-0.204069	0.0854387	0.595127	0.390949	0	0	0.0424048	-0.374654	0.32042	0.7262	1.371	0	0
1.45	2.66615	1.50038	-0.892626	0.503621	1.08788	0.911497	0.372923	-0.0431047	-0.384195	0.40944	0.0377377	0	0	-0.261445	-0.162021	-0.198221	0.617253	0.200885	0	0	-0.209656	0.0420982	-0.246514	-0.147248	-0.20689	0.0936517	0.592797	0.382458	0	0	0.0317907	-0.369628	0.317168	0.716744	1.36596	0	0
1.46	2.44841	1.50349	-0.678203	0.505714	1.10044	0.911617	0.374211	-0.0269278	-0.382994	0.410422	0.0406174	0	0	-0.214629	-0.183508	-0.189421	0.689614	0.147091	0	0	-0.195271	0.0511961	-0.241734	-0.148933	-0.210757	0.104975	0.592477	0.369371	0	0	0.0209678	-0.365328	0.317572	0.708221	1.35831	0	0
1.47	2.24614	1.50418	-0.480743	0.507917	1.11299	0.911762	0.371651	-0.0103762	-0.379046	0.405169	0.0438499	0	0	-0.170045	-0.201211	-0.17817	0.756645	0.0931081	0	0	-0.181747	0.058324	-0.235361	-0.151784	-0.215566	0.118504	0.595273	0.350299	0	0	0.0103968	-0.362469	0.322166	0.701834	1.34764	0	0
1.48	2.08616	1.5024	-0.325908	0.51009	1.12553	0.912065	0.365533	0.00551032	-0.374698	0.398479	0.0493188	0	0	-0.128675	-0.2165	-0.165872	0.820691	0.0443552	0	0	-0.170738	0.0643647	-0.22812	-0.155514	-0.219581	0.125967	0.600055	0.339501	0	0	0.000419088	-0.360335	0.327843	0.697016	1.34171	0	0
1.49	1.97231	1.49917	-0.217133	0.512094	1.13797	0.912597	0.357574	0.0200759	-0.368956	0.393984	0.0572023	0	0	-0.0902089	-0.229547	-0.15315	0.881803	0.00754655	0	0	-0.162383	0.0698576	-0.220467	-0.159491	-0.224	0.132029	0.60655	0.330885	0	0	-0.00871922	-0.358362	0.334277	0.693306	1.33754	0	0
